<svg xmlns="http://www.w3.org/2000/svg" xmlns:xlink="http://www.w3.org/1999/xlink" version="1.1" x="0px" y="0px" viewBox="0 0 100 125" enable-background="new 0 0 100 100" xml:space="preserve"><g><path d="M92.2,34.2L86,41c0.7,2.9,1.1,5.9,1.1,9c0,20.5-16.7,37.1-37.1,37.1S12.9,70.5,12.9,50S29.5,12.9,50,12.9   c3.1,0,6.2,0.4,9.1,1.1l6.7-6.2C60.8,6,55.5,5,50,5C25.1,5,5,25.1,5,50s20.1,45,45,45s45-20.1,45-45C95,44.5,94,39.2,92.2,34.2z"/><path d="M63.5,21.9c0,1.9,1.5,3.4,3.4,3.4H74v7.9c0,1.9,1.5,3.4,3.4,3.4s3.4-1.5,3.4-3.4v-7.9h8.6c1.9,0,3.4-1.5,3.4-3.4   s-1.5-3.4-3.4-3.4h-8.6v-7.9c0-1.9-1.5-3.4-3.4-3.4S74,8.8,74,10.6v7.9h-7.1C65,18.5,63.5,20,63.5,21.9z"/><path d="M28.1,67.6L28.1,67.6c5.1,6.4,13,10.5,21.9,10.5c8.9,0,16.8-4.1,22-10.6l-0.1,0.1c-2.6-6.4-7.9-11.4-14.6-13.5   c4.7-2.6,7.9-7.6,7.9-13.4c0-8.4-6.8-15.2-15.2-15.2s-15.2,6.8-15.2,15.2c0,5.8,3.2,10.8,7.9,13.4C36,56.2,30.7,61.2,28.1,67.6z"/></g><text x="0" y="115" fill="#000000" font-size="5px" font-weight="bold" font-family="'Helvetica Neue', Helvetica, Arial-Unicode, Arial, Sans-serif">Created by Stephen JB Thomas</text><text x="0" y="120" fill="#000000" font-size="5px" font-weight="bold" font-family="'Helvetica Neue', Helvetica, Arial-Unicode, Arial, Sans-serif">from the Noun Project</text></svg>