<svg xmlns="http://www.w3.org/2000/svg" xmlns:xlink="http://www.w3.org/1999/xlink" version="1.1" x="0px" y="0px" viewBox="0 0 100 125" enable-background="new 0 0 100 100" xml:space="preserve"><path d="M55,78.5C55,66.074,65.074,56,77.5,56c3.319,0,6.467,0.725,9.303,2.015c-3.183-6.021-7.684-11.238-13.129-15.253  C67.756,50.789,58.238,56,47.5,56c-10.946,0-20.621-5.417-26.51-13.711C9.503,50.443,2,63.841,2,79h53.013  C55.009,78.833,55,78.668,55,78.5z"/><circle cx="46.5" cy="24.5" r="22.5"/><path d="M79,64c-8.284,0-15,6.716-15,15s6.716,15,15,15s15-6.716,15-15S87.284,64,79,64z M89,82.5H69v-7h20V82.5z"/><text x="0" y="115" fill="#000000" font-size="5px" font-weight="bold" font-family="'Helvetica Neue', Helvetica, Arial-Unicode, Arial, Sans-serif">Created by Cees de Vries</text><text x="0" y="120" fill="#000000" font-size="5px" font-weight="bold" font-family="'Helvetica Neue', Helvetica, Arial-Unicode, Arial, Sans-serif">from the Noun Project</text></svg>